<svg width="132" height="40" viewBox="0 0 132 40" fill="none" xmlns="http://www.w3.org/2000/svg">
<rect x="0.5" y="0.5" width="65" height="39" rx="4.5" fill="#A70000" stroke="black"/>
<rect x="62" y="10" width="6" height="22" fill="#A70000"/>
<path d="M68.8867 12.9375L74.4648 26.8594L80.043 12.9375H82.9609V30H80.7109V23.3555L80.9219 16.1836L75.3203 30H73.5977L68.0078 16.2188L68.2305 23.3555V30H65.9805V12.9375H68.8867ZM96.5781 22.1133H89.1836V28.1602H97.7734V30H86.9336V12.9375H97.6562V14.7891H89.1836V20.2734H96.5781V22.1133ZM113.688 30H111.426L102.836 16.8516V30H100.574V12.9375H102.836L111.449 26.1445V12.9375H113.688V30ZM129.695 12.9375V24.5391C129.688 26.1484 129.18 27.4648 128.172 28.4883C127.172 29.5117 125.812 30.0859 124.094 30.2109L123.496 30.2344C121.629 30.2344 120.141 29.7305 119.031 28.7227C117.922 27.7148 117.359 26.3281 117.344 24.5625V12.9375H119.57V24.4922C119.57 25.7266 119.91 26.6875 120.59 27.375C121.27 28.0547 122.238 28.3945 123.496 28.3945C124.77 28.3945 125.742 28.0547 126.414 27.375C127.094 26.6953 127.434 25.7383 127.434 24.5039V12.9375H129.695Z" fill="black"/>
<path d="M13.3906 22.4648H6.23047V30H3.98047V12.9375H14.5508V14.7891H6.23047V20.625H13.3906V22.4648ZM19.5078 28.1602H27.5938V30H17.2461V12.9375H19.5078V28.1602ZM42.5117 22.0195C42.5117 23.6914 42.2305 25.1523 41.668 26.4023C41.1055 27.6445 40.3086 28.5938 39.2773 29.25C38.2461 29.9062 37.043 30.2344 35.668 30.2344C34.3242 30.2344 33.1328 29.9062 32.0938 29.25C31.0547 28.5859 30.2461 27.6445 29.668 26.4258C29.0977 25.1992 28.8047 23.7812 28.7891 22.1719V20.9414C28.7891 19.3008 29.0742 17.8516 29.6445 16.5938C30.2148 15.3359 31.0195 14.375 32.0586 13.7109C33.1055 13.0391 34.3008 12.7031 35.6445 12.7031C37.0117 12.7031 38.2148 13.0352 39.2539 13.6992C40.3008 14.3555 41.1055 15.3125 41.668 16.5703C42.2305 17.8203 42.5117 19.2773 42.5117 20.9414V22.0195ZM40.2734 20.918C40.2734 18.8945 39.8672 17.3438 39.0547 16.2656C38.2422 15.1797 37.1055 14.6367 35.6445 14.6367C34.2227 14.6367 33.1016 15.1797 32.2812 16.2656C31.4688 17.3438 31.0508 18.8438 31.0273 20.7656V22.0195C31.0273 23.9805 31.4375 25.5234 32.2578 26.6484C33.0859 27.7656 34.2227 28.3242 35.668 28.3242C37.1211 28.3242 38.2461 27.7969 39.043 26.7422C39.8398 25.6797 40.25 24.1602 40.2734 22.1836V20.918ZM49.5664 24.6211L49.8945 26.8711L50.375 24.8438L53.75 12.9375H55.6484L58.9414 24.8438L59.4102 26.9062L59.7734 24.6094L62.4219 12.9375H64.6836L60.5469 30H58.4961L54.9805 17.5664L54.7109 16.2656L54.4414 17.5664L50.7969 30H48.7461L44.6211 12.9375H46.8711L49.5664 24.6211Z" fill="white"/>
</svg>
